<svg width="119" height="39" viewBox="0 0 119 39" fill="none" xmlns="http://www.w3.org/2000/svg">
<path d="M1.14773 15V3.36364H3.25568V8.71023H3.39773L7.9375 3.36364H10.5114L6.01136 8.58523L10.5511 15H8.01705L4.54545 10.0114L3.25568 11.5341V15H1.14773ZM12.1359 15V3.36364H14.2438V8.71023H14.3859L18.9256 3.36364H21.4995L16.9995 8.58523L21.5393 15H19.0052L15.5336 10.0114L14.2438 11.5341V15H12.1359ZM27.2115 4.31818V3.36364H35.649V4.31818H31.9615V15H30.899V4.31818H27.2115ZM38.2011 15V3.36364H44.9511V4.31818H39.2636V8.69886H44.5931V9.65341H39.2636V14.0455H45.0647V15H38.2011ZM56.9747 7H55.9065C55.827 6.60227 55.683 6.23485 55.4747 5.89773C55.2702 5.55682 55.0126 5.25947 54.702 5.00568C54.3914 4.75189 54.0391 4.55492 53.6452 4.41477C53.2512 4.27462 52.8251 4.20455 52.3668 4.20455C51.6319 4.20455 50.9615 4.39583 50.3554 4.77841C49.7531 5.16098 49.2702 5.72348 48.9065 6.46591C48.5467 7.20455 48.3668 8.10985 48.3668 9.18182C48.3668 10.2614 48.5467 11.1705 48.9065 11.9091C49.2702 12.6477 49.7531 13.2083 50.3554 13.5909C50.9615 13.9697 51.6319 14.1591 52.3668 14.1591C52.8251 14.1591 53.2512 14.089 53.6452 13.9489C54.0391 13.8087 54.3914 13.6136 54.702 13.3636C55.0126 13.1098 55.2702 12.8125 55.4747 12.4716C55.683 12.1307 55.827 11.7614 55.9065 11.3636H56.9747C56.88 11.8977 56.702 12.3958 56.4406 12.858C56.183 13.3163 55.8535 13.7178 55.452 14.0625C55.0543 14.4072 54.5959 14.6761 54.077 14.8693C53.558 15.0625 52.988 15.1591 52.3668 15.1591C51.3895 15.1591 50.5221 14.9148 49.7645 14.4261C49.0069 13.9337 48.4122 13.2405 47.9804 12.3466C47.5524 11.4527 47.3384 10.3977 47.3384 9.18182C47.3384 7.96591 47.5524 6.91098 47.9804 6.01705C48.4122 5.12311 49.0069 4.43182 49.7645 3.94318C50.5221 3.45076 51.3895 3.20455 52.3668 3.20455C52.988 3.20455 53.558 3.30114 54.077 3.49432C54.5959 3.68371 55.0543 3.95265 55.452 4.30114C55.8535 4.64583 56.183 5.04735 56.4406 5.50568C56.702 5.96402 56.88 6.46212 56.9747 7ZM59.6305 15V3.36364H60.693V8.69886H67.2952V3.36364H68.3577V15H67.2952V9.65341H60.693V15H59.6305ZM80.6655 3.36364V15H79.6314L72.7564 5.25568H72.6655V15H71.603V3.36364H72.6314L79.5291 13.1193H79.62V3.36364H80.6655ZM84.9817 3.36364V15H83.9192V3.36364H84.9817ZM97.3491 7H96.2809C96.2014 6.60227 96.0574 6.23485 95.8491 5.89773C95.6445 5.55682 95.387 5.25947 95.0764 5.00568C94.7658 4.75189 94.4135 4.55492 94.0195 4.41477C93.6256 4.27462 93.1995 4.20455 92.7411 4.20455C92.0063 4.20455 91.3358 4.39583 90.7298 4.77841C90.1275 5.16098 89.6445 5.72348 89.2809 6.46591C88.9211 7.20455 88.7411 8.10985 88.7411 9.18182C88.7411 10.2614 88.9211 11.1705 89.2809 11.9091C89.6445 12.6477 90.1275 13.2083 90.7298 13.5909C91.3358 13.9697 92.0063 14.1591 92.7411 14.1591C93.1995 14.1591 93.6256 14.089 94.0195 13.9489C94.4135 13.8087 94.7658 13.6136 95.0764 13.3636C95.387 13.1098 95.6445 12.8125 95.8491 12.4716C96.0574 12.1307 96.2014 11.7614 96.2809 11.3636H97.3491C97.2544 11.8977 97.0764 12.3958 96.815 12.858C96.5574 13.3163 96.2279 13.7178 95.8264 14.0625C95.4286 14.4072 94.9703 14.6761 94.4514 14.8693C93.9324 15.0625 93.3624 15.1591 92.7411 15.1591C91.7639 15.1591 90.8964 14.9148 90.1389 14.4261C89.3813 13.9337 88.7866 13.2405 88.3548 12.3466C87.9267 11.4527 87.7127 10.3977 87.7127 9.18182C87.7127 7.96591 87.9267 6.91098 88.3548 6.01705C88.7866 5.12311 89.3813 4.43182 90.1389 3.94318C90.8964 3.45076 91.7639 3.20455 92.7411 3.20455C93.3624 3.20455 93.9324 3.30114 94.4514 3.49432C94.9703 3.68371 95.4286 3.95265 95.8264 4.30114C96.2279 4.64583 96.5574 5.04735 96.815 5.50568C97.0764 5.96402 97.2544 6.46212 97.3491 7ZM100.022 15H98.9082L103.141 3.36364H104.278L108.511 15H107.397L103.749 4.74432H103.67L100.022 15ZM100.823 10.5398H106.596V11.4943H100.823V10.5398ZM110.665 15V3.36364H111.727V14.0455H117.273V15H110.665Z" fill="white"/>
<path d="M7.86364 26.2727C7.79924 25.625 7.51326 25.1098 7.00568 24.7273C6.49811 24.3447 5.85985 24.1534 5.09091 24.1534C4.54924 24.1534 4.07197 24.2462 3.65909 24.4318C3.25 24.6174 2.92803 24.875 2.69318 25.2045C2.46212 25.5303 2.34659 25.9015 2.34659 26.3182C2.34659 26.625 2.41288 26.8939 2.54545 27.125C2.67803 27.3561 2.85606 27.5549 3.07955 27.7216C3.30682 27.8845 3.55682 28.0246 3.82955 28.142C4.10606 28.2595 4.38447 28.358 4.66477 28.4375L5.89205 28.7898C6.26326 28.892 6.63447 29.0227 7.00568 29.1818C7.37689 29.3409 7.71591 29.5417 8.02273 29.7841C8.33333 30.0227 8.58144 30.3163 8.76705 30.6648C8.95644 31.0095 9.05114 31.4242 9.05114 31.9091C9.05114 32.5303 8.89015 33.089 8.56818 33.5852C8.24621 34.0814 7.78409 34.4754 7.18182 34.767C6.57955 35.0549 5.85795 35.1989 5.01705 35.1989C4.22538 35.1989 3.53788 35.0682 2.95455 34.8068C2.37121 34.5417 1.91288 34.1761 1.57955 33.7102C1.24621 33.2443 1.05871 32.7045 1.01705 32.0909H2.10795C2.14583 32.5492 2.29735 32.9375 2.5625 33.2557C2.82765 33.5739 3.17235 33.8163 3.59659 33.983C4.02083 34.1458 4.49432 34.2273 5.01705 34.2273C5.59659 34.2273 6.11174 34.1307 6.5625 33.9375C7.01705 33.7405 7.37311 33.4678 7.63068 33.1193C7.89205 32.767 8.02273 32.358 8.02273 31.892C8.02273 31.4981 7.92046 31.1686 7.71591 30.9034C7.51136 30.6345 7.22538 30.4091 6.85795 30.2273C6.49432 30.0455 6.07197 29.8845 5.59091 29.7443L4.19886 29.3352C3.28598 29.0625 2.57765 28.6856 2.07386 28.2045C1.57008 27.7235 1.31818 27.1098 1.31818 26.3636C1.31818 25.7386 1.48485 25.1894 1.81818 24.7159C2.1553 24.2386 2.60985 23.8674 3.18182 23.6023C3.75758 23.3333 4.40341 23.1989 5.11932 23.1989C5.8428 23.1989 6.48295 23.3314 7.03977 23.5966C7.59659 23.8617 8.03788 24.2273 8.36364 24.6932C8.69318 25.1553 8.86932 25.6818 8.89205 26.2727H7.86364ZM23.1098 35.1818C22.356 35.1818 21.6893 34.9905 21.1098 34.608C20.534 34.2254 20.0833 33.697 19.7575 33.0227C19.4317 32.3447 19.2689 31.5625 19.2689 30.6761C19.2689 29.7822 19.4317 28.9962 19.7575 28.3182C20.0833 27.6364 20.534 27.1061 21.1098 26.7273C21.6893 26.3447 22.356 26.1534 23.1098 26.1534C23.8636 26.1534 24.5283 26.3447 25.1041 26.7273C25.6798 27.1098 26.1306 27.6402 26.4564 28.3182C26.7859 28.9962 26.9507 29.7822 26.9507 30.6761C26.9507 31.5625 26.7878 32.3447 26.462 33.0227C26.1363 33.697 25.6836 34.2254 25.1041 34.608C24.5283 34.9905 23.8636 35.1818 23.1098 35.1818ZM23.1098 34.2557C23.7158 34.2557 24.2291 34.0928 24.6495 33.767C25.07 33.4413 25.3882 33.0076 25.6041 32.4659C25.8238 31.9242 25.9336 31.3277 25.9336 30.6761C25.9336 30.0246 25.8238 29.4261 25.6041 28.8807C25.3882 28.3352 25.07 27.8977 24.6495 27.5682C24.2291 27.2386 23.7158 27.0739 23.1098 27.0739C22.5075 27.0739 21.9942 27.2386 21.57 27.5682C21.1495 27.8977 20.8295 28.3352 20.6098 28.8807C20.3939 29.4261 20.2859 30.0246 20.2859 30.6761C20.2859 31.3277 20.3939 31.9242 20.6098 32.4659C20.8295 33.0076 21.1495 33.4413 21.57 33.767C21.9905 34.0928 22.5037 34.2557 23.1098 34.2557ZM38.5022 23.3636V35H37.4909V23.3636H38.5022ZM55.0438 31.6648V26.2727H56.0552V35H55.0438V33.5511H54.9643C54.7597 33.9981 54.4359 34.3712 53.9927 34.6705C53.5495 34.9659 53.0078 35.1136 52.3677 35.1136C51.8109 35.1136 51.3165 34.9924 50.8847 34.75C50.4529 34.5038 50.1139 34.1439 49.8677 33.6705C49.6215 33.197 49.4984 32.6155 49.4984 31.9261V26.2727H50.5097V31.8636C50.5097 32.5455 50.7105 33.0947 51.112 33.5114C51.5135 33.9242 52.0287 34.1307 52.6574 34.1307C53.0514 34.1307 53.4302 34.036 53.7938 33.8466C54.1574 33.6572 54.4567 33.3807 54.6915 33.017C54.9264 32.6496 55.0438 32.1989 55.0438 31.6648ZM70.4902 26.2727V27.1534H66.3255V26.2727H70.4902ZM67.6266 24.1818H68.6436V32.7216C68.6436 33.0852 68.7061 33.3712 68.8311 33.5795C68.9561 33.7841 69.119 33.9299 69.3198 34.017C69.5205 34.1004 69.7345 34.142 69.9618 34.142C70.0944 34.142 70.208 34.1345 70.3027 34.1193C70.3974 34.1004 70.4808 34.0814 70.5527 34.0625L70.7686 34.9773C70.6702 35.0152 70.5489 35.0492 70.405 35.0795C70.2611 35.1136 70.083 35.1307 69.8709 35.1307C69.4997 35.1307 69.1417 35.0492 68.797 34.8864C68.4561 34.7235 68.1758 34.4811 67.9561 34.1591C67.7364 33.8371 67.6266 33.4375 67.6266 32.9602V24.1818ZM81.1185 35V26.2727H82.1355V35H81.1185ZM81.6355 24.7727C81.4272 24.7727 81.2491 24.7027 81.1014 24.5625C80.9537 24.4186 80.8798 24.2462 80.8798 24.0455C80.8798 23.8447 80.9537 23.6742 81.1014 23.5341C81.2491 23.3902 81.4272 23.3182 81.6355 23.3182C81.8438 23.3182 82.0219 23.3902 82.1696 23.5341C82.3173 23.6742 82.3912 23.8447 82.3912 24.0455C82.3912 24.2462 82.3173 24.4186 82.1696 24.5625C82.0219 24.7027 81.8438 24.7727 81.6355 24.7727ZM96.5223 35.1818C95.7685 35.1818 95.1018 34.9905 94.5223 34.608C93.9465 34.2254 93.4958 33.697 93.17 33.0227C92.8442 32.3447 92.6814 31.5625 92.6814 30.6761C92.6814 29.7822 92.8442 28.9962 93.17 28.3182C93.4958 27.6364 93.9465 27.1061 94.5223 26.7273C95.1018 26.3447 95.7685 26.1534 96.5223 26.1534C97.2761 26.1534 97.9408 26.3447 98.5166 26.7273C99.0923 27.1098 99.5431 27.6402 99.8689 28.3182C100.198 28.9962 100.363 29.7822 100.363 30.6761C100.363 31.5625 100.2 32.3447 99.8745 33.0227C99.5488 33.697 99.0961 34.2254 98.5166 34.608C97.9408 34.9905 97.2761 35.1818 96.5223 35.1818ZM96.5223 34.2557C97.1283 34.2557 97.6416 34.0928 98.062 33.767C98.4825 33.4413 98.8007 33.0076 99.0166 32.4659C99.2363 31.9242 99.3461 31.3277 99.3461 30.6761C99.3461 30.0246 99.2363 29.4261 99.0166 28.8807C98.8007 28.3352 98.4825 27.8977 98.062 27.5682C97.6416 27.2386 97.1283 27.0739 96.5223 27.0739C95.92 27.0739 95.4067 27.2386 94.9825 27.5682C94.562 27.8977 94.242 28.3352 94.0223 28.8807C93.8064 29.4261 93.6984 30.0246 93.6984 30.6761C93.6984 31.3277 93.8064 31.9242 94.0223 32.4659C94.242 33.0076 94.562 33.4413 94.9825 33.767C95.403 34.0928 95.9162 34.2557 96.5223 34.2557ZM111.915 29.5455V35H110.903V26.2727H111.886V27.642H111.977C112.182 27.1951 112.5 26.8371 112.932 26.5682C113.367 26.2955 113.905 26.1591 114.545 26.1591C115.133 26.1591 115.648 26.2822 116.091 26.5284C116.538 26.7708 116.884 27.1288 117.131 27.6023C117.381 28.0758 117.506 28.6572 117.506 29.3466V35H116.494V29.4091C116.494 28.6932 116.294 28.1269 115.892 27.7102C115.494 27.2936 114.96 27.0852 114.29 27.0852C113.831 27.0852 113.424 27.1837 113.068 27.3807C112.712 27.5777 112.43 27.8617 112.222 28.233C112.017 28.6004 111.915 29.0379 111.915 29.5455Z" fill="white"/>
</svg>
